# xmcd CD database file
#
# Track frame offsets:
#	150
#	17668
#	38220
#	58443
#	77017
#	97360
#	99141
#	118620
#	128865
#	157786
#	170279
#	185628
#
# Disc length: 2544 seconds
#
# Revision: 0
# Processed by: cddbd v1.5.2PL0 Copyright (c) Steve Scherf et al.
# Submitted via: CDex 1.70beta2
#
DISCID=9809ee0c
DTITLE=Micky Moody - Electric Journeyman
DYEAR=2009
DGENRE=Blues
TTITLE0=Marcia Rockola
TTITLE1=Dia Hermoso
TTITLE2=Chunk O' Funk
TTITLE3=The Man With The Blue Guitar
TTITLE4=Galasphere 347
TTITLE5=Through The Wormhole
TTITLE6=Day Of Reckoning
TTITLE7=Hookerized
TTITLE8=Dirty Pig Two-Step
TTITLE9=When Love Sneaks Up On You
TTITLE10=The Slithero Kid
TTITLE11=Pax Columba
EXTD=YEAR: 2009
EXTT0=
EXTT1=
EXTT2=
EXTT3=
EXTT4=
EXTT5=
EXTT6=
EXTT7=
EXTT8=
EXTT9=
EXTT10=
EXTT11=
PLAYORDER=
